<svg width="706" height="549" viewBox="0 0 706 549" fill="none" xmlns="http://www.w3.org/2000/svg">
<path d="M365.381 163.167C374.204 157.965 376.41 148.11 369.425 141.267C367.219 139.35 364.645 137.708 361.704 136.613L1.05681 2.47544C-9.60453 -1.63081 -22.4717 1.65419 -27.9862 9.59294C-30.192 11.7829 -30.192 14.5204 -30.192 16.9842V203.682C-30.192 209.704 -25.7804 215.453 -18.4277 218.19C93.7002 258.432 263.914 233.52 365.381 163.167ZM693.677 261.717C552.873 193.827 374.204 185.888 223.842 240.912L-18.4277 330.975C-25.7804 333.987 -30.192 339.462 -30.192 345.484L-30.192 532.182C-30.192 536.465 -27.9067 540.573 -23.839 543.602C-19.7713 546.631 -14.2543 548.333 -8.50165 548.333C-5.19295 548.333 -1.88425 548.333 1.05681 546.69C1.05681 546.69 676.765 295.388 693.677 288.27C703.603 285.259 708.014 276.225 702.867 268.56C701.029 265.549 697.72 263.085 693.677 261.717Z" fill="#8BD0C2"/>
</svg>
